# xmcd
#
# Track frame offsets: 
#        150
#        14970
#        38733
#        61373
#        76653
#        99743
#        113995
#        129360
#        141460
#        157765
#        174730
#        189103
#        202358
#        218681
#        235138
#        253503
#        269103
#        279723
#        295360
#        309440
#
# Disc length: 4323 seconds
#
# Revision: 0
# Processed by: cddbd v1.5.1PL0 Copyright (c) Steve Scherf et al.
# Submitted via: ExactAudioCopy v0.90b4
#
DISCID=3010e114
DTITLE=Downchild Blues Band - Body Of Work - The Downchild Collection 
DTITLE=Vol. 2
DYEAR=2003
DGENRE=Blues
TTITLE0=Bop Til' I Drop
TTITLE1=Wednesday Night Blues
TTITLE2=When The Morning Comes
TTITLE3=Oh! Oh!
TTITLE4=I'm Alone
TTITLE5=Caldonia
TTITLE6=My Aching Heart
TTITLE7=Do The Parrott
TTITLE8=Where Have You Gone
TTITLE9=I've Been A Fool
TTITLE10=Old Ma Bell
TTITLE11=Madison Blues
TTITLE12=A Talk With My Heart
TTITLE13=Don't Make My Baby Mad
TTITLE14=Last Chance To Dance
TTITLE15=Try To Fall In Love With Me
TTITLE16=One More Chance
TTITLE17=Let's Go Strollin'
TTITLE18=Not This Time
TTITLE19=I'm Finished
EXTD=
EXTT0=
EXTT1=
EXTT2=
EXTT3=
EXTT4=
EXTT5=
EXTT6=
EXTT7=
EXTT8=
EXTT9=
EXTT10=
EXTT11=
EXTT12=
EXTT13=
EXTT14=
EXTT15=
EXTT16=
EXTT17=
EXTT18=
EXTT19=
PLAYORDER=
